<?xml version="1.0" encoding="UTF-8" standalone="no"?>
<!-- Created with Inkscape (http://www.inkscape.org/) -->

<svg
   width="158.75002mm"
   height="127.41352mm"
   viewBox="0 0 158.75002 127.41352"
   version="1.1"
   id="svg1"
   xml:space="preserve"
   inkscape:version="1.4.2 (ebf0e940d0, 2025-05-08)"
   sodipodi:docname="3d.svg"
   xmlns:inkscape="http://www.inkscape.org/namespaces/inkscape"
   xmlns:sodipodi="http://sodipodi.sourceforge.net/DTD/sodipodi-0.dtd"
   xmlns="http://www.w3.org/2000/svg"
   xmlns:svg="http://www.w3.org/2000/svg"><sodipodi:namedview
     id="namedview1"
     pagecolor="#ffffff"
     bordercolor="#000000"
     borderopacity="0.25"
     inkscape:showpageshadow="2"
     inkscape:pageopacity="0.0"
     inkscape:pagecheckerboard="true"
     inkscape:deskcolor="#d1d1d1"
     inkscape:document-units="mm"
     inkscape:zoom="0.74118967"
     inkscape:cx="397.33419"
     inkscape:cy="561.25984"
     inkscape:window-width="1920"
     inkscape:window-height="1043"
     inkscape:window-x="0"
     inkscape:window-y="0"
     inkscape:window-maximized="1"
     inkscape:current-layer="layer1" /><defs
     id="defs1"><inkscape:path-effect
       effect="fill_between_many"
       method="originald"
       linkedpaths="#path1-2,0,1"
       id="path-effect2"
       is_visible="true"
       lpeversion="0"
       join="true"
       close="true"
       autoreverse="true" /></defs><g
     inkscape:label="Layer 1"
     inkscape:groupmode="layer"
     id="layer1"><path
       inkscape:original-d="M 0,0"
       inkscape:path-effect="#path-effect2"
       d="m 0.306532,129.19085 c -0.634539,-1.01243 -3.1070158,-6.10914 -4.5970367,-9.47625 -0.7937478,-1.79369 -1.6712717,-3.65126 -1.9500537,-4.12791 -0.7347416,-1.25627 -2.5619633,-6.37982 -2.9091669,-8.15737 l -0.2974897,-1.52302 -0.56806,-0.25811 -0.568058,-0.25811 0.08353,-2.47908 0.08353,-2.4791 h 0.5430218 0.5430232 l -0.1501781,-1.45509 -0.1501792,-1.455091 0.7033775,-0.272251 c 0.3868583,-0.149741 2.4730089,-0.78239 4.6358916,-1.405886 l 3.9325132,-1.133644 0.15837,0.304852 c 0.08711,0.167665 0.489304,1.509094 0.893775,2.980941 l 0.735405,2.676099 4.742828,0.0767 c 4.270879,0.0691 13.765367,-0.18526 13.916688,-0.37273 0.03326,-0.0412 -0.211984,-2.434452 -0.545005,-5.318298 -0.33302,-2.883836 -0.611623,-5.632468 -0.619119,-6.108065 l -0.01363,-0.864713 14.137041,0.07818 14.137043,0.07818 -0.115613,-1.179759 C 46.216992,78.367339 45.20592,49.696394 45.48065,42.020912 l 0.152957,-4.273392 -1.124992,-0.482227 -1.124992,-0.482226 -0.332045,-2.979099 c -0.628297,-5.637066 -0.77713,-5.320889 2.630135,-5.587433 l 2.329397,-0.18223 -0.0112,-2.536449 C 47.99381,24.102802 47.886551,20.325617 47.7617,17.104093 L 47.534693,11.246787 46.986399,10.862755 46.438107,10.478714 V 6.8446708 c 0,-1.9987124 0.07161,-3.8206438 0.159132,-4.0487221 L 46.756372,2.38125 h 9.035457 9.035452 l 0.374529,0.3745288 0.374528,0.3745189 v 3.6742132 3.6742031 l -0.536654,0.375886 -0.536655,0.375877 -0.564795,7.494926 c -0.310639,4.122205 -0.504254,7.555468 -0.430266,7.629457 0.07402,0.07402 6.73387,-0.504224 14.799705,-1.28493 8.065846,-0.780706 16.766144,-1.619793 19.334014,-1.864618 l 4.668833,-0.445158 0.59049,0.26905 0.59048,0.269041 0.3249,3.511731 c 0.37179,4.018699 0.35077,4.126981 -0.94525,4.867656 l -0.96047,0.548902 0.0707,3.494628 0.0706,3.494628 -0.94356,12.059703 c -0.51896,6.632841 -1.170823,13.70625 -1.448593,15.718687 -0.27778,2.012435 -0.45402,3.710003 -0.39165,3.772368 0.13755,0.137553 14.366783,-4.034334 18.217383,-5.341172 3.64621,-1.237467 28.37343,-8.486767 29.00951,-8.504742 0.25236,-0.0069 0.64427,1.055366 1.55212,4.207886 l 0.1195,0.414996 -0.62824,0.286242 -0.62824,0.286253 -0.12451,3.493439 -0.12451,3.493438 -0.84259,4.194678 c -2.38823,11.889364 -5.90008,19.644712 -13.18397,29.114514 l -3.03548,3.94644 -5.56008,5.36051 c -3.09652,2.98535 -8.94561,8.17747 -13.20088,11.71812 l -7.64076,6.35762 -51.264939,-0.014 -51.264938,-0.014 z"
       id="path2"
       transform="translate(10.583333,-2.38125)"
       style="fill:#d2d2d2;fill-opacity:0.217924" /><path
       style="fill:#000000;fill-opacity:1;stroke-width:0.99087"
       d="m 0.306532,129.19085 c -0.634539,-1.01243 -3.1070158,-6.10914 -4.5970367,-9.47625 -0.7937478,-1.79369 -1.6712717,-3.65126 -1.9500537,-4.12791 -0.7347416,-1.25627 -2.5619633,-6.37982 -2.9091669,-8.15737 l -0.2974897,-1.52302 -0.56806,-0.25811 -0.568058,-0.25811 0.08353,-2.47908 0.08353,-2.4791 h 0.5430218 0.5430232 l -0.1501781,-1.45509 -0.1501792,-1.455091 0.7033775,-0.272251 c 0.3868583,-0.149741 2.4730089,-0.78239 4.6358916,-1.405886 l 3.9325132,-1.133644 0.15837,0.304852 c 0.08711,0.167665 0.489304,1.509094 0.893775,2.980941 l 0.735405,2.676099 4.742828,0.0767 c 4.270879,0.0691 13.765367,-0.18526 13.916688,-0.37273 0.03326,-0.0412 -0.211984,-2.434452 -0.545005,-5.318298 -0.33302,-2.883836 -0.611623,-5.632468 -0.619119,-6.108065 l -0.01363,-0.864713 14.137041,0.07818 14.137043,0.07818 -0.115613,-1.179759 C 46.216992,78.367339 45.20592,49.696394 45.48065,42.020912 l 0.152957,-4.273392 -1.124992,-0.482227 -1.124992,-0.482226 -0.332045,-2.979099 c -0.628297,-5.637066 -0.77713,-5.320889 2.630135,-5.587433 l 2.329397,-0.18223 -0.0112,-2.536449 C 47.99381,24.102802 47.886551,20.325617 47.7617,17.104093 L 47.534693,11.246787 46.986399,10.862755 46.438107,10.478714 V 6.8446708 c 0,-1.9987124 0.07161,-3.8206438 0.159132,-4.0487221 L 46.756372,2.38125 h 9.035457 9.035452 l 0.374529,0.3745288 0.374528,0.3745189 v 3.6742132 3.6742031 l -0.536654,0.375886 -0.536655,0.375877 -0.564795,7.494926 c -0.310639,4.122205 -0.504254,7.555468 -0.430266,7.629457 0.07402,0.07402 6.73387,-0.504224 14.799705,-1.28493 8.065846,-0.780706 16.766144,-1.619793 19.334014,-1.864618 l 4.668833,-0.445158 0.59049,0.26905 0.59048,0.269041 0.3249,3.511731 c 0.37179,4.018699 0.35077,4.126981 -0.94525,4.867656 l -0.96047,0.548902 0.0707,3.494628 0.0706,3.494628 -0.94356,12.059703 c -0.51896,6.632841 -1.170823,13.70625 -1.448593,15.718687 -0.27778,2.012435 -0.45402,3.710003 -0.39165,3.772368 0.13755,0.137553 14.366783,-4.034334 18.217383,-5.341172 3.64621,-1.237467 28.37343,-8.486767 29.00951,-8.504742 0.25236,-0.0069 0.64427,1.055366 1.55212,4.207886 l 0.1195,0.414996 -0.62824,0.286242 -0.62824,0.286253 -0.12451,3.493439 -0.12451,3.493438 -0.84259,4.194678 c -2.38823,11.889364 -5.90008,19.644712 -13.18397,29.114514 l -3.03548,3.94644 -5.56008,5.36051 c -3.09652,2.98535 -8.94561,8.17747 -13.20088,11.71812 l -7.64076,6.35762 -51.264939,-0.014 -51.264938,-0.014 z m 51.768177,-0.0896 c -1.672865,-0.18131 -40.829181,-1.6917 -41.881885,-1.61552 -0.642888,0.0466 1.60139,0.42955 5.309512,0.90615 l 6.423106,0.82555 15.467884,-0.0155 c 8.507337,-0.009 15.113958,-0.0538 14.681383,-0.10071 z m 16.150472,-2.38697 0.420435,-2.42505 -1.469102,0.004 c -0.808005,0.002 -7.78078,0.28966 -15.495057,0.63899 -7.71428,0.34932 -20.249165,0.90316 -27.855301,1.23075 -7.606136,0.3276 -13.829338,0.66449 -13.829338,0.74864 0,0.0841 11.945008,0.59609 26.544464,1.13763 14.599455,0.54155 26.957372,1.02055 27.462051,1.06445 0.50467,0.0439 1.566446,0.0677 2.359509,0.0529 l 1.441912,-0.0271 z m 5.653008,-2.14964 c 0.461617,-2.78107 0.666053,-4.63241 0.499835,-4.52641 -0.154685,0.0987 -0.359894,0.18118 -0.456018,0.18338 -0.09611,0.002 -0.273094,0.11141 -0.393257,0.24268 -0.12693,0.13866 -0.08115,0.15964 0.109234,0.0501 0.609572,-0.35079 0.333626,0.14259 -2.425044,4.33592 -1.514019,2.30136 -2.752764,4.23738 -2.752764,4.30223 0,0.0648 1.043307,0.1179 2.318466,0.1179 h 2.318466 z m 5.068694,4.52463 c 0,-0.0996 -0.851999,-2.28413 -1.893324,-4.85443 l -1.893334,-4.67329 -0.168873,0.46312 c -0.09284,0.25472 -0.427956,2.23277 -0.744619,4.39564 -0.316652,2.16288 -0.635355,4.13897 -0.708224,4.39131 l -0.132478,0.45879 h 2.770421 c 1.523739,0 2.770431,-0.0815 2.770431,-0.18114 z m 9.175857,-0.0823 c 0,-0.23917 -3.393441,-10.53557 -3.518775,-10.67668 -0.04122,-0.0465 -4.425551,9.687 -4.826892,10.71605 -0.04806,0.12324 1.810051,0.22407 4.129141,0.22407 h 4.216526 z m 10.734907,-5.42247 c 1.01086,-3.12724 1.805533,-5.71828 1.765953,-5.75787 -0.0397,-0.0397 -2.661013,2.51907 -5.825383,5.68591 l -5.753416,5.75787 h 3.987456 3.98745 z m 8.026703,0.9669 c 2.33643,-2.52337 4.21361,-4.62631 4.17149,-4.6732 -0.0635,-0.0706 -10.31382,7.28538 -12.430103,8.92031 l -0.63912,0.49375 2.324833,-0.0765 2.32483,-0.0764 z m -24.659334,-1.80338 c 1.105225,-2.49247 1.959326,-4.58192 1.89799,-4.64326 -0.149532,-0.14953 -7.809784,0.6693 -8.370042,0.8947 l -0.441155,0.1775 1.996295,4.93935 1.996305,4.93937 0.455552,-0.88797 c 0.250551,-0.48837 1.359829,-2.92724 2.465055,-5.41969 z m 9.152941,-0.47731 c 1.38186,-3.34519 2.51248,-6.1879 2.51248,-6.31719 0,-0.12927 -2.0056,0.24126 -4.45685,0.82338 -2.451268,0.58215 -4.456857,1.18329 -4.456857,1.33585 0,0.71852 3.493003,10.65229 3.677926,10.45968 0.115962,-0.12078 1.341451,-2.95656 2.723301,-6.30172 z m 9.126763,-5.34402 c -0.24678,-0.2172 -5.830313,-1.37386 -5.967903,-1.23628 -0.10577,0.10579 -3.93077,9.21271 -4.87789,11.61374 l -0.517061,1.31084 5.777011,-5.76001 c 3.17737,-3.16801 5.691003,-5.83573 5.585843,-5.92829 z m 3.6914,0.91085 c -1.41447,-0.44828 -2.64953,-0.74322 -2.74462,-0.65541 -0.18097,0.16714 -3.628563,10.71981 -3.628563,11.1066 0,0.12232 2.01261,-1.99576 4.472463,-4.70685 l 4.47246,-4.92925 z m 1.62109,5.1201 c 6.05255,-4.40129 6.98939,-5.16229 5.99898,-4.87302 -0.27039,0.0789 -1.19948,0.21927 -2.06463,0.31174 -0.86515,0.0924 -1.76611,0.22117 -2.00214,0.286 -0.40897,0.11232 -8.538523,8.75288 -8.235233,8.75288 0.08,0 2.916413,-2.01492 6.303023,-4.4776 z m -91.552956,0.53927 c 6.08815,-1.73349 11.305316,-3.26203 11.5937,-3.39673 l 0.524335,-0.2449 -13.23946,0.15256 c -7.281704,0.0839 -13.313444,0.22621 -13.403869,0.31625 -0.156661,0.156 3.102215,6.32465 3.34129,6.32465 0.06305,0 5.095854,-1.41832 11.184004,-3.15183 z m 22.211485,1.84435 c 23.859399,-1.04063 29.45326,-1.32522 28.969508,-1.47381 -0.144192,-0.0443 -8.284489,-0.91025 -18.089554,-1.92436 -9.805066,-1.01411 -18.156819,-1.88417 -18.559451,-1.93349 -0.403457,-0.0495 -5.993246,1.42087 -12.452958,3.2755 l -11.7209,3.36517 4.063597,-0.13709 c 2.234978,-0.0754 14.740369,-0.60276 27.789758,-1.17192 z m 32.105085,-2.42841 c -0.05975,-0.46863 -0.235966,-2.44161 -0.391701,-4.38439 -0.155725,-1.94279 -0.318119,-3.56733 -0.360855,-3.61006 -0.131241,-0.13124 -36.69319,4.40513 -37.234761,4.61985 -0.308398,0.12228 2.162321,0.48685 6.29202,0.92847 3.739901,0.39992 12.049725,1.29162 18.466275,1.98155 6.416547,0.68995 12.042455,1.26842 12.50201,1.28553 l 0.835571,0.0311 z m 3.546826,-1.86424 2.416622,-2.06085 -0.354831,-0.33875 c -0.518046,-0.49459 -5.725134,-3.63049 -5.8254,-3.50828 -0.04677,0.057 0.06728,1.87335 0.253544,4.03623 0.186243,2.16288 0.344991,4.02685 0.352778,4.14218 0.02229,0.32989 0.569038,-0.0633 3.157287,-2.27053 z m -45.953176,-1.57649 c 0.04111,-0.0412 -1.016075,-0.32318 -2.349308,-0.62681 -1.333232,-0.30364 -7.893912,-1.8046 -14.579287,-3.3355 -6.685374,-1.53089 -12.2181914,-2.72047 -12.2951503,-2.64351 -0.076961,0.0769 0.4318943,1.69428 1.1307822,3.59405 l 1.2707068,3.45412 13.3737513,-0.1838 c 7.355565,-0.10109 13.40739,-0.21744 13.448505,-0.25855 z m 15.779099,-1.75286 c 21.39545,-2.61374 23.157334,-2.83963 23.305697,-2.98799 0.07828,-0.0783 -0.673711,-0.14271 -1.671042,-0.14324 -0.997329,-5.2e-4 -12.961995,-0.34949 -26.588153,-0.7755 -27.502495,-0.85982 -38.4080028,-1.11712 -37.6210424,-0.88764 2.0554534,0.5994 27.9733514,6.35231 28.6796614,6.36593 0.489444,0.01 6.74214,-0.69776 13.894879,-1.57156 z m 35.256841,-3.45267 c 1.225259,-2.34021 2.192953,-4.28969 2.150434,-4.33222 -0.144954,-0.14495 -10.441514,4.52266 -10.47453,4.74829 -0.03032,0.20701 5.506014,3.78401 5.91558,3.82204 0.09943,0.009 1.183266,-1.89792 2.408516,-4.23811 z m 4.306269,3.69709 2.700882,-0.30366 -0.147451,-0.38423 c -0.08105,-0.21132 -1.044416,-1.97331 -2.140715,-3.91553 l -1.993272,-3.5313 -0.447774,0.74147 c -0.246271,0.4078 -1.28914,2.38016 -2.317485,4.38302 l -1.869731,3.64156 1.757327,-0.16384 c 0.966534,-0.09 2.972727,-0.30048 4.458219,-0.46749 z m 27.841627,-2.7557 c 1.22564,-1.67146 2.33232,-3.21946 2.45932,-3.43997 0.12699,-0.22051 -1.28871,0.39952 -3.14601,1.37786 -5.76618,3.03736 -6.77177,3.632 -6.37443,3.76937 0.85247,0.29471 4.3277,1.29141 4.57053,1.31081 0.14419,0.0115 1.26497,-1.3466 2.49059,-3.01807 z m 3.58891,2.27009 c 0.27792,-0.005 6.63562,-8.41878 6.63562,-8.78191 0,-0.19232 -11.23611,9.12048 -11.25713,9.33022 -0.009,0.0882 0.95723,0.002 2.14681,-0.19138 1.18959,-0.19344 2.3032,-0.35406 2.4747,-0.35693 z m -22.991963,-1.19256 c 2.08933,-0.52163 3.84611,-0.99575 3.90396,-1.0536 0.0579,-0.0579 -0.74868,-1.24117 -1.7923,-2.6296 -1.0436,-1.38843 -1.98661,-2.42373 -2.09557,-2.30067 -0.45026,0.50854 -4.732443,6.87164 -4.732443,7.03217 0,0.0959 0.206457,0.11264 0.458792,0.0373 0.252335,-0.0754 2.168241,-0.5639 4.257561,-1.08554 z m -2.750101,-2.51334 c 1.297731,-1.88382 2.393981,-3.51791 2.436121,-3.63133 0.081,-0.21806 -9.063195,-0.67863 -9.274686,-0.46713 -0.195915,0.19591 3.992579,7.54115 4.294002,7.53025 0.101782,-0.004 1.24683,-1.54799 2.544563,-3.43179 z m 15.685874,-1.35714 c 0.9459,-2.20501 1.84385,-4.33531 1.99541,-4.734 l 0.27561,-0.72486 -0.32691,0.19736 c -0.68269,0.41212 -9.892273,8.05095 -9.808043,8.13518 0.15133,0.15134 4.72451,1.08157 5.453103,1.10922 l 0.691,0.0263 z m 4.15676,-1.16273 4.75424,-4.38535 -0.87716,-0.17941 c -0.48242,-0.0987 -1.81351,-0.21931 -2.95793,-0.26811 l -2.08077,-0.0887 -1.93427,4.58479 c -1.06385,2.52163 -1.93427,4.61569 -1.93427,4.65346 0,0.27043 0.82163,-0.43466 5.03016,-4.31665 z m -9.987353,-1.81233 c 1.43638,-2.97615 2.56022,-5.46254 2.49744,-5.52532 -0.0841,-0.0841 -8.37749,5.2825 -9.04708,5.85434 -0.12415,0.10601 3.59155,5.08216 3.79486,5.08216 0.0787,0 1.3184,-2.43504 2.75478,-5.41118 z m -29.386765,4.72885 c 0,-0.0869 -0.450667,-1.1197 -1.001481,-2.29512 l -1.001482,-2.1371 -16.760368,0.70352 c -9.2182,0.38695 -17.881132,0.69689 -19.250958,0.68875 -1.87104,-0.0111 21.702692,-1.16369 31.329022,-1.53177 0.720957,-0.0276 1.133872,-0.0949 0.917585,-0.14973 -0.306991,-0.0777 -33.754174,-2.30676 -46.927989,-3.12741 l -2.490591,-0.15514 -7.334292,2.91668 c -4.033861,1.60419 -7.3961594,2.97889 -7.4717747,3.05493 -0.075613,0.076 2.1630377,0.085 4.9747837,0.0199 2.811746,-0.065 3.932513,-0.0458 2.490592,0.043 l -2.621676,0.16125 5.112268,0.22122 c 19.153259,0.82881 60.036361,1.90953 60.036361,1.58705 z m 7.859576,-2.95314 c 1.943591,-0.86632 3.563583,-1.67099 3.599977,-1.78815 0.06381,-0.20549 -6.705728,-3.49008 -7.193106,-3.49008 -0.186591,0 -2.181499,4.69781 -3.367817,7.93088 l -0.168458,0.45909 1.797803,-0.7683 c 0.98879,-0.42256 3.388001,-1.47711 5.331601,-2.34344 z m 24.591352,-0.72556 c 2.55518,-2.11017 4.79613,-3.97535 4.97986,-4.14486 l 0.33407,-0.30818 -2.3705,-1.24987 c -1.30379,-0.68743 -2.49221,-1.20931 -2.64094,-1.15974 -0.21272,0.0709 -5.225823,10.2474 -5.225823,10.60833 0,0.27567 0.68489,-0.2454 4.923333,-3.74568 z m -30.351919,-0.35799 c 0.757896,-1.94659 1.409888,-3.79355 1.448859,-4.10437 l 0.07084,-0.56512 -2.495614,-0.95521 c -2.98543,-1.14272 -2.731896,-1.32878 -2.640141,1.93747 l 0.07511,2.6731 2.319377,-1.60856 c 1.275645,-0.88472 2.363451,-1.56449 2.417315,-1.51062 0.05391,0.054 -1.014938,0.88901 -2.375143,1.85587 l -2.473092,1.75791 0.907815,2.15253 c 0.499299,1.18388 0.907815,2.20918 0.907815,2.27845 0,0.51541 0.662732,-0.89583 1.836844,-3.91145 z m -66.608184,-4.0007 c -4.3621713,-0.10958 -7.9901346,-0.14032 -8.0621401,-0.0683 -0.1133256,0.11333 1.1789345,5.46843 1.4356836,5.94945 0.051773,0.097 3.3484355,-1.14174 7.3259085,-2.75276 l 7.23177,-2.92913 z m 86.79342,0.73905 c 0,-1.50551 -0.0961,-2.79672 -0.2137,-2.86935 -0.16446,-0.10165 -6.264503,3.37449 -8.700001,4.95773 l -0.393245,0.25565 2.359507,0.14709 c 1.297731,0.0808 3.391796,0.16937 4.653469,0.19663 l 2.29397,0.0496 z m -24.381579,-0.55169 v -3.02681 l -0.852048,0.13018 c -0.468621,0.0716 -2.503699,0.19949 -4.522385,0.28421 -2.018692,0.0847 -8.920254,0.44288 -15.336804,0.7959 -6.41655,0.35303 -15.197682,0.82216 -19.513625,1.04251 -4.315944,0.22034 -7.882386,0.43584 -7.925427,0.47888 -0.04304,0.043 4.019074,0.35156 9.026924,0.6856 5.007849,0.33403 15.416864,1.04854 23.131143,1.58779 7.714281,0.53924 14.468364,0.99577 15.009092,1.0145 l 0.98313,0.0341 z m 29.431069,0.0773 4.51175,-2.94938 -0.65149,-0.0933 c -0.35831,-0.0514 -2.4506,-0.009 -4.64953,0.0931 l -3.99805,0.18646 v 2.85623 c 0,1.57093 0.062,2.85624 0.13779,2.85624 0.0758,0 2.16806,-1.32722 4.64953,-2.94939 z m -15.274022,-0.73862 v -3.42584 l -0.575388,0.18261 c -0.316463,0.10045 -1.336237,0.524 -2.266158,0.94122 -0.929921,0.41722 -1.733466,0.71589 -1.785655,0.6637 -0.05222,-0.0523 0.908587,-0.54202 2.135065,-1.08851 2.700338,-1.20323 2.700308,-0.90847 2.68e-4,-3.379582 l -2.229703,-2.040646 -0.481415,1.13297 c -1.044634,2.458428 -2.457742,6.274758 -2.359715,6.372788 0.05697,0.057 0.619709,-0.12747 1.250506,-0.40988 0.630808,-0.28242 1.191927,-0.46848 1.246941,-0.41347 0.055,0.055 -0.522932,0.37164 -1.284336,0.7036 l -1.384353,0.60355 3.670349,1.78085 c 2.018687,0.97945 3.758823,1.78571 3.866967,1.79166 0.108143,0.006 0.196627,-1.53081 0.196627,-3.41502 z m 4.979951,0.77449 c 4.637874,-2.75828 4.930861,-3.00886 3.737114,-3.19634 -0.396526,-0.0623 -0.278553,-0.0809 0.262172,-0.0416 l 0.983115,0.0716 v -0.50221 c 0,-0.51099 -0.779809,-5.56866 -0.868838,-5.635128 -0.05083,-0.03795 -7.35749,4.028568 -8.045163,4.477478 l -0.39293,0.25651 1.83517,0.31443 1.835169,0.31443 -1.704087,-0.14 c -0.937254,-0.0769 -1.822061,-0.15685 -1.966252,-0.17758 l -0.262174,-0.0376 -0.07313,3.47372 c -0.04023,1.91054 -0.0113,3.47372 0.06431,3.47372 0.0756,0 2.143598,-1.19311 4.595543,-2.65135 z m -71.222152,-2.78204 c 3.34175,-2.38584 3.333236,-2.39662 -1.207558,-1.52985 -4.643122,0.88631 -5.132379,0.80939 -0.844886,-0.13285 l 3.408177,-0.74899 -6.029853,0.0849 -6.029853,0.0849 -3.3706559,1.6092 c -4.2863548,2.04637 -4.6471263,2.05814 -0.627399,0.0204 1.6942579,-0.85885 3.0804689,-1.61957 3.0804689,-1.6905 0,-0.0709 -1.710643,-0.12895 -3.8014294,-0.12895 h -3.8014299 l -0.037207,0.98316 -0.037207,0.98314 -0.159423,-1.04868 -0.1594229,-1.04867 -0.5997733,-0.0851 -0.5997742,-0.0851 0.1450098,0.74048 0.1450097,0.74051 -0.2209718,-0.50695 c -0.2505225,-0.57472 -0.3712778,-0.43122 -0.8274591,0.9833 -0.1774975,0.55039 -0.3712125,0.95221 -0.4304764,0.89294 -0.059264,-0.0593 0.070471,-0.61289 0.2882965,-1.23028 0.2178277,-0.61739 0.3960505,-1.21547 0.3960505,-1.32906 0,-0.26273 -1.2991458,0.0735 -1.305852,0.33799 -0.00278,0.10815 -0.00496,0.79347 -0.00496,1.52294 v 1.32631 l 0.2726754,-0.16851 0.2726753,-0.16854 -0.1700124,0.67739 -0.1700133,0.6774 h 1.2373562 1.2373521 l -0.1540762,-0.98314 -0.1540772,-0.98313 0.2233162,0.52434 0.2233162,0.52433 0.1280481,-0.65541 0.128049,-0.65542 0.035701,1.12343 0.035701,1.12343 0.489864,-0.26216 c 0.2694263,-0.14419 0.5729535,-0.17908 0.6745066,-0.0774 0.2773722,0.27737 4.3690343,0.49352 10.2410253,0.541 l 5.2444592,0.0424 z m 14.690807,0.58337 c 9.007298,-0.79305 16.475297,-1.46275 16.595551,-1.48821 0.120253,-0.0255 -0.607185,-0.12261 -1.61653,-0.21588 l -1.835173,-0.16957 2.228424,-0.0724 2.228424,-0.0724 -0.655419,-0.23249 -0.655418,-0.23249 0.917587,0.14783 c 0.504671,0.0812 1.330499,0.19998 1.835172,0.26373 l 0.917587,0.11589 2.489061,-2.344295 c 1.368985,-1.289359 2.418526,-2.414828 2.332316,-2.501034 -0.150574,-0.150583 -16.726401,2.102457 -16.924346,2.300403 -0.05314,0.05311 1.516609,0.432546 3.488333,0.843106 1.971724,0.41058 3.465328,0.78638 3.319122,0.83511 -0.146208,0.0488 -2.081889,-0.27089 -4.301514,-0.71027 l -4.035685,-0.798874 -6.029853,0.416424 c -8.241651,0.56916 -8.219624,0.75219 0.142513,1.18414 3.958999,0.20451 6.785264,0.41136 6.280592,0.45968 -0.504673,0.0483 -4.622634,-0.10744 -9.151027,-0.34614 l -8.233438,-0.43399 -1.728927,1.22184 c -0.950911,0.67201 -2.287191,1.59462 -2.969514,2.05023 -1.070217,0.71462 -1.540184,1.22163 -1.132376,1.22163 0.0647,0 7.487237,-0.64885 16.494538,-1.44192 z m 80.896819,-2.67242 c 1.73984,-2.190803 3.16335,-4.049427 3.16335,-4.130282 0,-0.08085 -2.61837,1.163212 -5.81861,2.764592 l -5.81861,2.9116 0.37863,0.21035 c 3.04633,1.69244 4.36498,2.34654 4.62152,2.29244 0.1707,-0.036 1.73388,-1.85791 3.47372,-4.0487 z m 6.26424,-0.86254 c 0.0771,-0.23136 -1.96208,-3.674642 -2.17622,-3.674642 -0.12278,0 -6.43019,8.076902 -6.43019,8.234122 0,0.25815 8.50189,-4.24597 8.60641,-4.55948 z m -42.230981,0.81554 c 0.771471,-1.927288 1.359979,-3.546854 1.307789,-3.599034 -0.05222,-0.05222 -1.90127,1.08744 -4.109086,2.532494 -2.207815,1.44504 -3.953033,2.68854 -3.878273,2.76331 0.291187,0.29118 4.53954,1.90055 4.897591,1.85531 0.225521,-0.0286 0.947994,-1.4686 1.781979,-3.55208 z m -21.823863,2.32453 c 5.623493,-0.28409 10.69643,-0.52805 11.273205,-0.54212 l 1.048667,-0.0256 -0.689447,-0.20854 c -0.379196,-0.11469 -2.620718,-0.40762 -4.981179,-0.65095 l -4.291738,-0.44244 -7.471775,1.17379 c -8.656935,1.35999 -8.488157,1.38296 5.112267,0.69587 z m 48.682061,-1.01429 c 0.203873,-0.18439 1.107313,-5.256513 0.961423,-5.397643 -0.0839,-0.08115 -9.876993,5.491613 -10.176183,5.790803 -0.18669,0.18668 9.00738,-0.20559 9.21476,-0.39316 z m -4.74616,-2.54068 c 2.65499,-1.52358 4.939343,-2.880288 5.076323,-3.014918 l 0.24906,-0.244784 H 94.842787 89.13608 l 0.133242,0.458792 c 0.07332,0.252335 0.278585,1.609054 0.456235,3.01493 0.17765,1.40587 0.40135,2.55614 0.49713,2.55614 0.0958,0 2.34641,-1.24658 5.00142,-2.77016 z m 9.156413,-1.562739 3.79804,-3.808555 -0.86542,0.299609 c -0.47599,0.164782 -0.91917,0.245874 -0.98482,0.180209 -0.0656,-0.0657 0.35327,-0.261005 0.93096,-0.434089 1.40187,-0.42001 1.41799,-0.393426 -1.64682,-2.714121 -2.83315,-2.145272 -4.6376,-3.642951 -3.67232,-3.048004 0.31786,0.195916 1.94806,1.404042 3.62269,2.684721 1.67461,1.280689 3.13895,2.224492 3.25408,2.097344 0.44903,-0.4959 2.68046,-6.691767 2.54095,-7.055307 -0.0813,-0.212006 -0.0379,-0.385468 0.0967,-0.385468 0.13454,0 0.0129,-0.530888 -0.2704,-1.179759 -0.28327,-0.648861 -0.74935,-1.716644 -1.03575,-2.372846 l -0.52074,-1.193096 -3.33899,2.700554 c -4.70212,3.803039 -4.65659,3.767674 -4.47759,3.478033 0.0889,-0.143845 1.81812,-1.616365 3.84269,-3.272267 2.02459,-1.655893 3.68634,-3.16356 3.6928,-3.350369 0.007,-0.186819 -0.41213,-1.8177 -0.93018,-3.624184 -0.51804,-1.806494 -0.89571,-3.330728 -0.83924,-3.387188 0.0564,-0.05648 0.55478,1.425355 1.10737,3.292916 1.0223,3.454993 1.18997,3.771933 2.1157,3.999477 l 0.52433,0.128891 -0.70801,0.03043 -0.708,0.03042 0.99856,2.16288 c 0.99106,2.146612 1.15299,2.284134 2.25263,1.913153 0.28837,-0.0973 0.1999,0.0113 -0.19663,0.241415 -0.93488,0.542432 -0.99396,0.44497 1.04868,1.730127 0.97328,0.612367 2.02335,1.277697 2.33346,1.478516 l 0.56384,0.365115 0.9797,-2.940147 0.97969,-2.940149 -0.30045,-0.481127 -0.30047,-0.481116 h 0.39547 c 0.21751,0 0.39285,-0.08849 0.38965,-0.196628 -0.0321,-1.084219 -0.75203,-6.940644 -0.86733,-7.055952 -0.0832,-0.08323 -0.65817,0.238691 -1.27764,0.715378 -1.73732,1.336892 -1.78172,1.367222 -1.78172,1.217194 0,-0.07749 0.57767,-0.564904 1.28371,-1.083188 0.70606,-0.518295 1.34057,-1.090473 1.41004,-1.271514 l 0.12632,-0.329176 -0.95124,0.0318 -0.95124,0.0319 0.85205,-0.109332 c 1.09109,-0.14001 1.07635,-0.207013 -0.4016,-1.825558 l -1.23695,-1.354627 -3.3783,0.988183 -3.37827,0.988194 3.64045,0.491491 c 2.00225,0.270329 3.44617,0.530007 3.20873,0.577073 -0.23744,0.04706 -1.74568,-0.0977 -3.35164,-0.321685 -1.60597,-0.223997 -3.27155,-0.407258 -3.70128,-0.407258 h -0.78134 l -0.54838,0.852038 c -0.50318,0.781836 -0.51787,0.648386 -0.0551,-0.500933 l 0.17531,-0.435388 -0.50302,0.153376 c -0.27666,0.08432 -1.70814,0.590429 -3.18108,1.124608 l -2.67807,0.971239 0.10389,5.14401 0.10389,5.144001 -0.23291,-4.817024 c -0.12808,-2.649366 -0.27094,-4.855081 -0.31745,-4.901593 -0.11158,-0.111581 -5.443403,8.972245 -5.443403,9.273935 0,0.128179 1.20925,0.680361 2.68722,1.227073 1.47797,0.546712 2.834693,1.049361 3.014923,1.116997 l 0.32772,0.122968 0.0225,-1.011174 0.0225,-1.011182 0.22144,0.737723 c 0.1218,0.405751 0.35062,0.893367 0.5085,1.083594 l 0.28705,0.345883 -0.39994,0.153466 -0.39995,0.153476 0.023,2.695442 c 0.0127,1.4825 0.10111,3.245543 0.19663,3.917888 l 0.17366,1.222435 1.96625,-0.629052 c 2.74458,-0.87805 2.95564,-0.757501 0.28907,0.165118 -1.21084,0.41894 -2.26117,0.821351 -2.33406,0.89425 -0.10944,0.109431 -1.08067,5.383082 -0.99138,5.383082 0.0156,0 1.73734,-1.71384 3.82626,-3.808551 z m -46.751571,1.930289 c 4.640948,-0.898923 8.38466,-1.72084 8.319372,-1.826486 -0.0653,-0.105637 0.20403,-0.229594 0.598485,-0.275461 l 0.717201,-0.08333 0.44502,-1.966261 c 0.244764,-1.081435 0.402075,-2.009266 0.349579,-2.061831 -0.05252,-0.05262 -2.954436,0.467789 -6.448747,1.156355 l -6.353289,1.251934 0.50641,0.183865 c 0.278525,0.101118 2.612737,0.461487 5.187138,0.800811 2.574398,0.339323 4.538826,0.664259 4.365395,0.722066 -0.173433,0.05777 -2.85092,-0.221509 -5.949961,-0.620719 L 53.730925,97.2061 51.200408,99.736612 c -1.391784,1.391788 -2.413297,2.534628 -2.270029,2.539678 0.143268,0.005 4.057625,-0.72633 8.69857,-1.62525 z m 53.385631,-4.862381 c -0.98304,-0.463033 -1.9069,-0.84645 -2.05304,-0.852048 -0.14612,-0.0059 -1.91574,1.650956 -3.9325,3.681208 l -3.66683,3.691361 5.71986,-2.839322 5.71985,-2.839327 z m -24.333753,2.186413 1.835167,-1.082366 -0.7865,-0.09651 -0.786503,-0.09651 0.459645,-0.16934 0.459644,-0.169338 -2.433595,-1.065799 -2.433586,-1.065799 -0.840921,0.545195 c -1.168364,0.757491 -1.088509,0.850562 0.921836,1.07441 0.973301,0.108371 1.632666,0.24642 1.465259,0.306773 -0.167408,0.06034 -1.080237,0.0059 -2.028499,-0.121262 l -1.724103,-0.230992 -0.119935,0.413549 c -0.066,0.227455 -0.202186,1.524592 -0.30273,2.882529 l -0.182796,2.468978 2.331219,-1.25552 c 1.282175,-0.690537 3.157048,-1.742592 4.166398,-2.337897 z m 36.217303,-0.02051 c 1.19511,-1.867244 2.11887,-3.449048 2.05278,-3.515139 -0.0661,-0.06609 0.004,-0.27026 0.15666,-0.453709 l 0.27682,-0.333547 -0.47572,-0.241791 c -0.26165,-0.132986 -1.10174,-0.461854 -1.86688,-0.730807 l -1.39116,-0.489014 -0.18184,0.27147 c -1.34988,2.01518 -4.54448,7.233772 -4.47217,7.30556 0.0527,0.05222 1.783,-1.147099 3.84535,-2.665141 2.06233,-1.518042 3.80778,-2.702002 3.87877,-2.631025 0.071,0.07094 -1.78174,1.523659 -4.11717,3.228173 -2.33542,1.704513 -4.13986,3.132868 -4.00986,3.174118 0.57584,0.1827 3.16769,0.55105 3.62585,0.51529 l 0.50562,-0.0394 z m -92.583327,1.789589 c 2.595458,-0.220686 4.982765,-0.480641 5.305127,-0.577676 l 0.586111,-0.176444 -7.21705,-4.928169 c -3.969377,-2.71049 -7.388969,-4.994137 -7.599093,-5.074765 l -0.382043,-0.146608 0.0023,4.419357 c 0.0013,2.430641 0.07684,5.040107 0.167963,5.798795 l 0.165686,1.379439 2.126001,-0.14634 c 1.169302,-0.0805 4.249559,-0.326909 6.845019,-0.547586 z m 12.969508,-1.512582 4.055814,-0.552835 -0.08189,-4.456614 c -0.04504,-2.451143 -0.111504,-4.487261 -0.147691,-4.524706 -0.03619,-0.03746 -5.769999,-0.03746 -12.741807,0 l -12.676014,0.06807 7.588138,5.158684 7.588137,5.158684 1.179754,-0.149224 c 0.648865,-0.08204 3.00487,-0.398013 5.235566,-0.702071 z m 86.250449,-1.852707 2.46979,-2.480097 -2.47497,-0.0872 -2.47496,-0.0872 2.55614,-0.05439 2.55613,-0.0544 V 90.66752 87.719535 l -3.00717,3.01353 -3.00719,3.013531 0.30234,2.556137 c 0.36533,3.088708 0.0866,3.081831 3.07989,0.076 z m -56.772835,1.029939 c 4.061802,-1.017365 6.042699,-1.589047 6.400165,-1.847079 0.076,-0.0548 -0.980128,-3.827878 -1.112181,-3.973476 -0.03052,-0.03359 -1.914906,0.467789 -4.187613,1.114213 -2.272707,0.646423 -4.205567,1.175309 -4.295251,1.175309 -0.08968,0 -0.05103,0.101852 0.08601,0.226345 0.136978,0.124492 1.369827,0.385022 2.739645,0.578955 1.369827,0.193943 2.299609,0.392691 2.06618,0.44168 -0.233429,0.04895 -1.55938,-0.09353 -2.946558,-0.316791 -1.387187,-0.223223 -2.627052,-0.40585 -2.755271,-0.40585 -0.228326,0 -1.083367,2.991058 -1.083367,3.789758 0,0.525924 -0.357644,0.580967 5.088253,-0.783064 z m -19.835172,-0.679716 3.47372,-0.582652 -0.0018,-0.544453 c -9.57e-4,-0.29945 -0.236125,-1.90117 -0.522597,-3.559381 -0.286472,-1.65821 -0.509563,-3.250884 -0.495758,-3.539267 0.0138,-0.288383 0.342436,1.245296 0.73029,3.408175 l 0.70519,3.932513 h 0.493001 0.493 l 0.0015,-3.14601 0.0015,-3.146011 0.08381,2.4906 c 0.04609,1.369818 0.14527,2.756034 0.220391,3.080465 0.227024,0.980475 0.648043,0.662851 0.695,-0.524339 l 0.04409,-1.114212 0.103369,0.991948 0.103357,0.99194 0.966781,-0.171698 c 0.531731,-0.09443 1.057721,-0.254227 1.168877,-0.355107 0.18767,-0.170321 -0.03498,-12.332571 -0.521019,-28.460329 l -0.20543,-6.816356 -0.153367,2.359508 c -0.08432,1.297732 -0.09681,-0.08849 -0.02765,-3.080474 l 0.125682,-5.439972 h -0.311688 c -0.17143,0 -1.088203,0.195052 -2.03728,0.433456 l -1.72559,0.433456 0.16225,2.909182 c 0.321328,5.76143 0.741733,17.872103 0.651586,18.770317 -0.05065,0.504669 -0.311573,-4.155359 -0.579828,-10.355616 l -0.487733,-11.27321 -4.318193,-7.830545 -4.318193,-7.830553 0.243796,-0.243793 0.243795,-0.243793 5.479717,4.569433 5.479716,4.569434 0.422873,-0.296518 c 0.232577,-0.163087 1.521814,-1.231393 2.864977,-2.374014 l 2.442114,-2.077491 -0.898718,-0.307248 c -0.494296,-0.168983 -2.579452,-0.758382 -4.633679,-1.30977 -2.054225,-0.55139 -3.687426,-1.050055 -3.629335,-1.108149 0.05809,-0.05806 2.151737,0.445187 4.652546,1.118384 l 4.546918,1.224011 1.704088,-0.17693 c 0.937243,-0.0973 2.765863,-0.38296 4.063594,-0.634791 l 2.359508,-0.45786 -0.65542,-0.159461 c -0.360476,-0.08769 -1.889387,-0.306496 -3.397579,-0.4862 -1.508183,-0.179703 -2.612517,-0.36995 -2.454057,-0.422764 0.15846,-0.05282 2.431713,0.140614 5.05167,0.429869 l 4.763555,0.525903 7.75606,-2.748195 c 4.265822,-1.511512 7.798197,-2.706045 7.849717,-2.65454 0.0516,0.05153 -3.317945,1.322474 -7.487683,2.824355 l -7.581339,2.730677 0.03121,0.420842 c 0.01715,0.231468 0.21383,0.408427 0.437053,0.393257 0.223224,-0.01516 0.373439,0.128645 0.333824,0.319605 -0.03964,0.19096 0.0438,0.27563 0.185283,0.188156 0.252623,-0.156122 5.092623,2.735523 4.900404,2.927741 -0.05401,0.05401 -1.713401,-0.803406 -3.68757,-1.905332 -1.974168,-1.101927 -3.630773,-1.962139 -3.681337,-1.911575 -0.05054,0.05054 0.458683,1.153649 1.131662,2.451301 l 1.223595,2.35936 1.048667,-0.02507 1.048677,-0.02507 -0.852049,0.106459 c -1.179858,0.147432 -1.150687,0.207707 1.543942,3.190392 2.729995,3.021825 2.78147,3.048965 2.917566,1.537898 l 0.100355,-1.114212 0.04578,1.376377 0.04578,1.376387 h 1.987644 1.987635 l -0.591787,-0.983131 c -0.325481,-0.540717 -0.787662,-1.278073 -1.027066,-1.638551 -0.649129,-0.977414 -0.827069,-1.310831 -0.699584,-1.310831 0.06312,0 0.689467,0.883291 1.391855,1.962863 0.702387,1.079581 1.337178,1.964398 1.410631,1.96626 0.168161,0.004 -0.03656,0.3333 5.707412,-9.172478 2.65744,-4.397864 4.95899,-8.114081 5.11454,-8.258282 0.15553,-0.144191 0.10355,0.03279 -0.11552,0.393257 -0.21907,0.360478 -2.65922,4.437589 -5.42254,9.060243 l -5.024204,8.404831 v 0.702021 c 0,0.689388 2.471504,17.962313 2.776264,19.402828 l 0.15557,0.735394 0.63751,-0.417721 c 0.35064,-0.229733 1.37212,-0.678943 2.26997,-0.998222 l 1.63246,-0.580521 0.15725,-1.179084 0.15725,-1.179075 0.0394,1.114213 c 0.0218,0.612832 0.0808,1.114222 0.13145,1.114222 0.0507,0 0.46351,-0.129517 0.9176,-0.287807 l 0.82562,-0.287818 0.034,-2.006154 0.034,-2.006145 0.31278,1.966252 0.3128,1.966261 0.1762,-0.917594 c 0.33009,-1.718911 0.76221,-8.508883 0.83423,-13.10837 0.0396,-2.523368 0.44527,-9.05504 0.901673,-14.514839 0.45642,-5.459801 0.77258,-9.984169 0.70258,-10.054164 -0.43353,-0.433535 -0.66216,0.626367 -0.84635,3.923704 -0.11926,2.134907 -0.27013,3.342321 -0.352103,2.817904 -0.0788,-0.504671 -0.044,-2.021483 0.0776,-3.370701 l 0.22099,-2.453115 -0.325027,-0.299639 -0.325,-0.299648 0.21006,0.368217 0.210067,0.368216 -0.297877,-0.184093 c -0.17261,-0.106677 -3.66171,2.417811 -8.29732,6.00338 l -7.99944,6.187474 -0.130616,0.575844 c -0.07184,0.316712 -0.16817,1.283692 -0.214067,2.148849 l -0.08343,1.573006 -0.04954,-2.034097 -0.04954,-2.034086 -1.50747,0.124294 -1.507459,0.124295 1.23819,-0.230337 c 1.809714,-0.336659 2.202931,-0.581333 7.807415,-4.858135 9.640416,-7.35663 10.525186,-8.067311 10.309126,-8.280755 -0.11907,-0.117625 -5.4664,0.303217 -11.882952,0.935193 -6.416543,0.631986 -17.733997,1.747319 -25.149881,2.478511 -12.528952,1.235337 -15.122471,1.558638 -12.84256,1.600938 l 0.895738,0.01665 -0.627871,0.251155 c -0.345331,0.138137 -0.852388,0.179903 -1.126794,0.09285 -0.274406,-0.0871 -0.653421,-0.03013 -0.842255,0.126594 l -0.343336,0.284944 -0.05015,4.774415 c -0.02759,2.625923 -0.103372,4.827625 -0.168419,4.892675 -0.06505,0.0651 -0.118267,-2.20192 -0.118267,-5.037699 V 38.03616 H 46.658879 46.35496 l 0.162302,5.571064 c 0.08927,3.064085 0.314511,11.056914 0.500544,17.76185 l 0.338242,12.190795 0.156854,-2.752764 0.156854,-2.752755 -0.01536,4.456842 c -0.0084,2.451272 0.125436,8.703965 0.297519,13.894875 0.172083,5.190917 0.314867,9.823707 0.317298,10.295073 l 0.0045,0.857043 0.589878,-0.123185 c 0.324433,-0.06777 2.15305,-0.385379 4.063598,-0.705836 z m 48.042207,-3.867889 v -3.900405 l -0.32772,-0.253495 c -0.36272,-0.280584 -5.467033,-2.170212 -5.862213,-2.170212 -0.25445,0 -5.365567,9.492489 -5.20306,9.663256 0.0493,0.05182 0.47981,-0.165912 0.95674,-0.483743 l 0.86713,-0.577885 -0.91759,0.804398 -0.91759,0.804398 5.70215,0.0069 5.702153,0.0069 z m -8.499673,-2.981487 c 0.92788,-1.838449 1.59773,-3.338446 1.48856,-3.333344 -0.10918,0.005 -0.49344,0.177891 -0.85392,0.383963 -0.36047,0.206071 -0.77339,0.373517 -0.91758,0.37211 -0.14421,-9.91e-4 0.24405,-0.267524 0.86277,-0.59138 l 1.12494,-0.588834 -1.74937,-0.972331 c -2.23172,-1.240421 -1.88864,-1.375933 -4.009819,1.583806 -2.14656,2.995151 -2.129913,3.026066 0.8831,1.640632 1.270099,-0.584009 2.352159,-1.018931 2.404589,-0.966504 0.0525,0.05242 -1.26192,0.721621 -2.920772,1.487087 l -3.016096,1.391756 1.627592,3.092949 1.627581,3.092949 0.880675,-1.625105 c 0.48438,-0.893814 1.63986,-3.129304 2.56775,-4.967754 z M 81.175309,94.69215 c 0.720956,-0.414491 1.524848,-0.991414 1.786428,-1.282037 0.777763,-0.864137 10.12832,-14.063163 10.13554,-14.307106 0.004,-0.123423 -0.90767,0.590806 -2.02515,1.587175 -4.361822,3.889053 -9.541225,8.256074 -9.655918,8.141381 -0.06629,-0.06629 2.764377,-2.577955 6.290376,-5.58147 l 6.410902,-5.460929 -1.32372,-1.590385 c -0.72806,-0.87471 -1.39851,-1.617644 -1.48991,-1.650957 -0.22381,-0.08154 -10.08823,13.908023 -9.964104,14.130949 0.05371,0.09651 -0.187393,0.478996 -0.535872,0.849929 l -0.633581,0.674425 1.242401,1.599867 c 0.683333,0.879932 1.191441,1.650848 1.129135,1.713164 -0.06233,0.06233 -0.629172,-0.568204 -1.259692,-1.401129 l -1.146406,-1.514415 -0.170163,0.786503 -0.170151,0.786502 -0.03101,-0.858093 -0.03101,-0.858082 -0.673325,0.441174 -0.673335,0.441184 0.160044,0.679073 c 0.430761,1.827698 0.958498,3.431589 1.128393,3.42938 0.10412,-9.92e-4 0.77918,-0.341603 1.500146,-0.756103 z M 67.95494,93.488771 c 10.694623,-2.503263 10.973959,-2.601745 12.13603,-4.278613 l 0.71635,-1.033695 0.900432,-13.993645 c 0.495227,-7.696499 1.00069,-15.468333 1.12323,-17.270735 l 0.222807,-3.277092 -0.261966,-0.524329 c -0.423081,-0.846826 -5.146418,-6.069431 -5.767227,-6.376838 -0.312569,-0.154774 -0.804259,-0.341573 -1.092641,-0.415105 -0.288383,-0.07352 -0.140912,-0.100039 0.32771,-0.05895 0.468622,0.04113 0.852038,0.03389 0.852038,-0.01615 0,-0.124414 -2.393078,-4.901475 -2.528529,-5.047439 -0.180666,-0.194707 -4.009842,3.731832 -3.866096,3.964399 0.07342,0.118854 0.421526,0.216099 0.773503,0.216099 0.351967,0 0.639943,0.106934 0.639943,0.237629 0,0.130686 0.206457,0.187275 0.458792,0.125751 0.252335,-0.06153 0.989681,-0.005 1.638551,0.126902 l 1.179749,0.238769 -3.670339,0.01774 -3.670348,0.01774 0.90715,-0.483029 0.907161,-0.483039 -2.39182,-1.201242 -2.39182,-1.20125 -0.185867,2.231318 c -0.214959,2.580542 -0.176197,2.666341 0.95071,2.104162 0.463716,-0.231329 0.868813,-0.420605 0.900214,-0.420605 0.03141,0 -0.911322,0.973301 -2.094946,2.16289 l -2.152049,2.16288 -0.695491,1.533479 -0.695501,1.533479 0.254852,16.556081 c 0.140158,9.105842 0.256962,18.296217 0.259567,20.423048 0.003,2.126832 0.04281,3.866968 0.08938,3.866968 0.04657,0 2.848462,-0.646919 6.226474,-1.437603 z m 45.79469,-1.831245 c 3.22285,-1.805562 3.18868,-1.603653 0.55443,-3.276091 -2.50307,-1.589158 -2.24353,-1.738956 -3.75147,2.165286 -1.42381,3.686411 -1.43398,3.779345 -0.34223,3.126104 0.46862,-0.280396 2.06129,-1.18728 3.53927,-2.015299 z m 18.15509,-4.36265 c 0,-0.182963 -3.54311,-2.82283 -4.04944,-3.01713 l -0.30802,-0.1182 -0.57608,3.875956 c -0.31684,2.131767 -0.57514,4.109789 -0.57401,4.395596 l 0.002,0.519651 2.75276,-2.74339 c 1.51402,-1.508866 2.75276,-2.81948 2.75276,-2.912483 z m -7.46553,0.326333 c 2.75387,-3.815027 2.76578,-3.889273 0.64918,-4.046039 l -1.44192,-0.106795 1.76962,0.03537 c 0.9733,0.01952 1.76964,0.002 1.76964,-0.03785 0,-0.250106 -2.14603,-6.5635 -2.32902,-6.851665 l -0.22449,-0.353571 -2.4294,3.171872 c -1.33617,1.744534 -2.47923,3.171882 -2.54014,3.171882 -0.19163,0 0.21651,-0.576409 2.45845,-3.472036 1.19942,-1.549135 2.18075,-2.918161 2.18075,-3.042277 0,-0.184311 -5.51856,-0.909241 -5.67069,-0.744916 -0.10147,0.10962 0.70682,6.893341 0.86495,7.259229 0.0934,0.216287 0.14153,0.510873 0.10676,0.654637 -0.1059,0.437896 1.91438,8.007892 2.11752,7.934399 0.1043,-0.03775 1.32775,-1.645279 2.71879,-3.572332 z m -42.455778,-0.807647 0.684463,-1.034289 0.087,-11.746373 c 0.04786,-6.460508 0.03954,-11.451438 -0.01863,-11.09096 -0.05816,0.360478 -0.403403,5.669368 -0.76728,11.797538 -0.363867,6.128172 -0.709571,11.584524 -0.768231,12.125252 -0.13353,1.230908 -0.06272,1.226281 0.782649,-0.05113 z m 15.697085,-6.252249 c 1.26741,-2.2052 2.25573,-4.058097 2.19629,-4.117548 -0.14165,-0.141646 -4.93336,1.594694 -5.236,1.897336 -0.13036,0.130359 -0.15592,1.756603 -0.058,3.690781 l 0.175,3.457739 0.30917,-0.459426 c 0.17006,-0.252691 1.34615,-2.263693 2.61357,-4.468882 z m -13.649651,3.349772 0.696789,-1.052927 0.924451,-9.892563 C 86.160521,67.524681 86.7836,60.857804 87.036697,58.150314 87.570598,52.438882 87.747894,52.97958 85.341271,52.97958 h -1.907573 l -0.09255,3.342639 c -0.136363,4.922907 -0.225829,28.641806 -0.108034,28.641806 0.05549,0 0.41453,-0.473827 0.797768,-1.05293 z m 4.02508,-5.658647 2.618821,-3.696647 -1.268821,-8.732472 c -0.697851,-4.802863 -1.377398,-9.215106 -1.510096,-9.80498 l -0.241266,-1.072507 -0.03092,0.655421 c -0.01695,0.360478 -0.560188,6.200255 -1.207117,12.977287 -1.147764,12.023567 -1.282245,13.704289 -1.078572,13.479777 0.0545,-0.06004 1.277568,-1.772724 2.717926,-3.805879 z m 11.223091,-2.437737 1.325023,-0.571256 1.39643,-2.358795 c 0.76805,-1.297335 1.35155,-2.397091 1.29667,-2.4439 -0.12232,-0.104357 -8.797183,2.29096 -8.987993,2.481792 -0.0751,0.07511 1.22451,0.584434 2.88797,1.131919 1.66346,0.547485 2.977433,1.042474 2.919933,1.099984 -0.0575,0.05747 -1.502783,-0.365175 -3.211683,-0.939304 -3.67552,-1.234802 -3.37356,-1.366112 -2.85091,1.239696 l 0.4243,2.115486 1.73763,-0.592192 c 0.9557,-0.325699 2.33389,-0.849246 3.06263,-1.16343 z m 25.723373,-3.500276 c 0.13802,-1.766354 0.22409,-3.250448 0.19126,-3.29799 -0.0328,-0.04756 -0.98426,0.772789 -2.11429,1.822972 -3.95996,3.680149 -4.3892,3.985276 -1.50723,1.071417 1.59879,-1.616464 2.83753,-2.939225 2.75276,-2.939463 -0.50893,-9.91e-4 -8.41238,2.467939 -8.41238,2.62837 0,0.421595 2.43949,3.129888 2.97316,3.300764 0.7589,0.243001 3.16783,0.548714 4.65785,0.591113 l 1.2079,0.03438 z m -17.89313,1.102778 c 0.14563,-0.1421 -0.0626,-0.472317 -0.52433,-0.831558 -0.42123,-0.327719 -1.17879,-0.99295 -1.68346,-1.478287 l -0.91759,-0.882429 0.69157,0.487647 c 0.38037,0.268198 1.25504,0.959548 1.94372,1.536313 0.68867,0.576765 1.29603,0.917932 1.34968,0.758134 0.0536,-0.159787 0.27675,-0.513716 0.4958,-0.786503 l 0.39825,-0.495969 -0.29786,0.612327 c -0.16383,0.336787 -0.25193,0.658284 -0.19577,0.714446 0.13568,0.135681 5.97205,-1.797021 5.96387,-1.974921 -0.004,-0.0761 -0.65173,-0.846202 -1.44049,-1.71136 l -1.43412,-1.573005 -0.24566,0.393256 c -0.1351,0.216287 -0.44314,0.629202 -0.68451,0.917584 l -0.43886,0.524339 0.44186,-0.743717 c 0.63184,-1.06347 0.58781,-1.061231 -3.15454,0.160442 l -3.39294,1.107603 -1.49429,2.359508 c -0.82185,1.297732 -1.5002,2.439719 -1.50745,2.537746 -0.0171,0.230525 5.8086,-1.3208 6.12712,-1.631596 z m 8.26014,-3.200112 0.67043,-0.589874 -0.49754,0.589874 -0.49756,0.589875 h 0.34706 c 0.57071,0 5.61511,-1.357957 5.8529,-1.575602 0.12096,-0.110709 -0.13728,-1.010735 -0.57387,-2.000059 l -0.79378,-1.798775 -0.47481,0.02874 c -0.49947,0.03033 -6.05796,1.571559 -7.1296,1.976933 l -0.62492,0.236402 1.41143,1.536551 c 1.67363,1.821981 1.47902,1.737252 2.31026,1.005891 z m 7.24597,-2.556135 c 0.0725,0 2.5e-4,0.246053 -0.1607,0.546791 -0.3941,0.736394 -0.18872,0.868259 0.8465,0.543472 0.47829,-0.150057 2.26881,-0.703319 3.97893,-1.22946 1.71014,-0.526142 3.00786,-1.053909 2.88386,-1.172814 -0.12402,-0.118904 -1.35872,-0.685384 -2.74378,-1.258829 l -2.5183,-1.042633 -0.98022,1.675649 c -1.29267,2.209788 -1.49101,2.163019 -0.2486,-0.05866 l 0.96986,-1.734269 -0.49823,0.149858 c -0.27404,0.08244 -1.29772,0.347092 -2.27487,0.588151 l -1.77662,0.438291 0.16289,0.513221 c 0.0896,0.282279 0.4635,1.169841 0.83091,1.972356 l 0.668,1.459114 0.36421,-0.695135 c 0.20033,-0.382326 0.4236,-0.695144 0.49616,-0.695144 z m 8.11558,-2.949383 -0.11708,-1.638551 0.24764,1.546619 c 0.3115,1.945482 0.0299,1.857355 2.78835,0.872331 2.95642,-1.055672 3.14437,-1.215856 3.39201,-2.890931 0.11084,-0.749751 0.244,-1.176043 0.29591,-0.947301 0.052,0.228743 -0.016,0.907102 -0.15088,1.507459 l -0.24526,1.091582 h 0.24379 c 0.47551,0 4.81591,-1.124082 5.01291,-1.298247 0.17264,-0.152644 -3.90888,-2.634266 -4.33257,-2.634266 -0.0852,0 -0.20886,0.206458 -0.27481,0.458792 l -0.11989,0.458793 -0.0304,-0.617926 c -0.0185,-0.373687 -0.15994,-0.571663 -0.35812,-0.500865 -0.18024,0.06441 -1.53696,0.451103 -3.01492,0.859381 -3.26319,0.901444 -3.25525,0.814276 -0.18807,2.064337 1.37435,0.56013 2.45666,1.060588 2.40512,1.112133 -0.0516,0.05153 -1.0876,-0.303939 -2.30236,-0.789932 -1.21476,-0.486001 -2.4741,-0.964917 -2.79854,-1.064253 l -0.58988,-0.180625 -0.0304,0.47646 -0.0305,0.476459 -0.11989,-0.458793 c -0.0659,-0.252334 -0.20857,-0.458791 -0.31692,-0.458791 -0.29472,0 -3.87266,1.236347 -4.34838,1.502573 l -0.41276,0.230992 2.69492,1.207959 c 1.48221,0.664378 2.72263,1.218126 2.75646,1.230551 0.0338,0.01249 0.009,-0.714744 -0.0556,-1.61594 z m 14.79731,-2.66318 c 1.07638,-0.343394 1.99968,-0.784223 2.05175,-0.979622 l 0.0947,-0.355257 -0.24465,0.348082 -0.24466,0.348084 -0.47877,-1.845931 c -0.26331,-1.015265 -0.61575,-1.898496 -0.78316,-1.962743 -0.25354,-0.0973 -3.12386,0.581144 -4.24544,1.003453 l -0.32015,0.120539 0.66948,1.77866 c 0.92405,2.454958 0.80812,2.40381 3.50091,1.544735 z M 58.628901,53.480128 c 0.720956,-0.170311 1.399355,-0.388045 1.507538,-0.483832 0.17798,-0.157597 -0.893695,-4.340355 -1.18727,-4.633929 -0.06777,-0.06777 -0.632671,1.117294 -1.255336,2.633483 -0.622667,1.516179 -1.173116,2.715706 -1.223223,2.665597 -0.0825,-0.08254 0.808841,-2.428591 1.871836,-4.92684 l 0.411829,-0.967882 -5.418002,-4.600448 c -2.9799,-2.530254 -5.4629,-4.555561 -5.517778,-4.500677 -0.124284,0.124285 7.727032,14.272899 8.272475,14.907571 0.218612,0.254366 0.584139,0.407177 0.812283,0.339561 0.228142,-0.06757 1.004683,-0.262284 1.725648,-0.432604 z m 3.374413,-2.461201 c 0.685909,-0.934172 1.372274,-1.671518 1.525255,-1.638551 0.15297,0.03299 0.331356,-0.117021 0.396407,-0.333308 l 0.11827,-0.393247 -0.278108,0.393247 c -0.15296,0.216287 -0.27992,0.284567 -0.28213,0.151731 -0.002,-0.132836 0.191238,-0.457276 0.429869,-0.720966 l 0.433882,-0.479432 -1.679177,-0.04528 -1.679177,-0.04528 1.704088,-0.151375 1.704087,-0.151375 0.199571,-1.966262 c 0.290781,-2.864749 0.313026,-2.860469 -2.514232,-0.48361 l -2.576823,2.166318 0.479492,0.188889 0.479482,0.18889 -0.589875,0.01843 c -0.722413,0.02259 -0.725038,0.14971 -0.05123,2.48075 0.67832,2.346696 0.736038,2.51886 0.844486,2.51886 0.04885,0 0.649951,-0.764317 1.335871,-1.698489 z m -16.35171,-15.080229 -0.393252,-0.254139 0.458793,-0.004 0.458794,-0.004 0.04579,-1.114213 0.0458,-1.114213 0.101203,1.131543 0.101201,1.131543 0.836123,-0.193071 c 0.459869,-0.106191 2.664742,-0.200552 4.899721,-0.209697 2.234978,-0.0089 3.591695,-0.07749 3.014926,-0.15197 -0.627268,-0.08096 2.164517,-0.433476 6.947435,-0.877247 4.397865,-0.408049 14.838686,-1.41188 23.201832,-2.230735 l 15.20571,-1.48883 -0.0413,-1.701778 -0.0413,-1.701779 0.19848,1.179749 c 0.10916,0.648871 0.21874,1.061786 0.24351,0.917595 0.21254,-1.237161 0.754,-4.990594 0.72496,-5.025422 -0.0203,-0.02438 -0.35082,-0.123017 -0.73452,-0.21932 l -0.69761,-0.175096 0.0949,1.661252 0.095,1.661242 -0.21529,-1.517595 c -0.11841,-0.83468 -0.262183,-1.564475 -0.319473,-1.621776 -0.0573,-0.05727 -2.69079,0.480343 -5.85217,1.19476 -3.16139,0.714427 -5.864933,1.25996 -6.007906,1.212299 -0.142972,-0.04766 1.824276,-0.54366 4.371666,-1.102243 2.54739,-0.558574 4.59408,-1.053126 4.54822,-1.098993 -0.0755,-0.07551 -16.951764,1.408422 -41.59124,3.65715 l -9.306947,0.849403 -0.08438,1.033655 c -0.04736,0.580203 -0.169136,0.896529 -0.277579,0.721066 -0.10626,-0.171935 -0.341634,0.778625 -0.523052,2.112345 -0.181419,1.33372 -0.385846,2.621811 -0.454281,2.862423 l -0.124428,0.43747 0.469692,0.121995 c 0.809403,0.210233 1.008231,0.183965 0.600778,-0.07937 z m 5.659576,-8.28131 0.547311,-0.146946 -0.336893,-1.881265 c -0.429618,-2.399063 -0.403776,-3.436098 0.03381,-1.356936 l 0.331063,1.573005 0.02858,-7.275152 0.02858,-7.275151 h -1.315833 -1.315831 l 0.134184,0.589884 c 0.37058,1.629069 1.719192,10.265427 1.640067,10.50281 -0.05019,0.150552 -0.431116,-1.752819 -0.846512,-4.229724 -0.415396,-2.476907 -0.832518,-4.503463 -0.926938,-4.503463 -0.09442,0 -0.249907,1.976091 -0.345525,4.391305 -0.09562,2.415225 -0.249263,5.600564 -0.341433,7.078524 l -0.167589,2.687218 1.152825,-0.004 c 0.634054,-0.002 1.399114,-0.06975 1.700134,-0.150523 z m 5.548086,-0.533336 2.16288,-0.174443 v -0.365135 c 0,-0.20083 -0.594684,-2.735196 -1.321523,-5.631923 -0.726837,-2.896728 -1.275828,-5.312468 -1.219976,-5.368322 0.05585,-0.05588 0.680031,2.156458 1.387065,4.916238 l 1.285517,5.017782 0.144339,-2.982507 0.144331,-2.982517 0.07888,2.883846 0.07888,2.883837 1.128051,-6.16094 c 0.620433,-3.388515 1.190907,-6.544355 1.267739,-7.012977 l 0.139673,-0.852048 -1.097725,0.004 c -0.603744,0.002 -1.241705,0.09552 -1.417683,0.207309 l -0.319952,0.203287 -0.08136,3.659667 -0.08135,3.659667 -0.05747,-3.735885 -0.05747,-3.735884 -1.114211,-0.004 c -0.612823,-0.002 -1.396183,-0.07907 -1.740809,-0.171262 l -0.626591,-0.167685 0.163527,1.023301 0.163528,1.02331 -0.298443,-0.65542 -0.298441,-0.655421 -0.212248,0.786502 -0.212248,0.786504 0.124808,-1.114213 0.124808,-1.114213 h -1.29307 -1.293069 l -0.166481,1.638551 c -0.09156,0.901205 -0.130446,4.057045 -0.0864,7.012978 l 0.08008,5.374435 1.046008,-5.185794 c 0.575304,-2.852188 1.082183,-5.077264 1.126397,-4.944626 0.07536,0.226057 -1.898728,10.85748 -2.216644,11.937757 l -0.146114,0.496505 1.274931,-0.163127 c 0.701212,-0.08968 2.248227,-0.241625 3.437813,-0.33757 z m 5.995194,-0.697968 c 0.06629,-0.06629 -0.02249,-3.025224 -0.197262,-6.5754 -0.174789,-3.550176 -0.38416,-6.388492 -0.465283,-6.307379 -0.08115,0.08115 -0.688109,3.103135 -1.34887,6.715597 l -1.201397,6.568127 1.54613,-0.140198 c 0.850374,-0.07709 1.600383,-0.194449 1.666682,-0.260747 z m -8.0484,-16.179808 h 0.699554 l 0.434993,-1.1142128 0.434991,-1.114213 -0.152154,1.114213 -0.152153,1.1142128 h 1.606513 1.606517 V 9.8530296 c 0,-0.2162969 0.110135,-0.3932562 0.244745,-0.3932562 0.134619,0 0.295952,-0.2654441 0.358526,-0.5898745 0.06252,-0.3244305 0.07144,-0.1627007 0.01971,0.359418 l -0.09403,0.9492931 1.242973,0.141099 c 0.683641,0.07759 1.285742,0.09923 1.338011,0.04806 0.11061,-0.108322 -0.603876,-3.505993 -1.19708,-5.6925445 L 60.78822,3.1677625 h -1.407369 c -0.774057,0 -1.407376,0.067082 -1.407376,0.1491159 0,0.082044 0.300354,1.3339976 0.667455,2.7821929 0.367097,1.4482052 0.628905,2.7487411 0.581789,2.8900887 C 59.175553,9.1305074 58.86009,8.0849718 58.52159,6.6657495 57.796887,3.6273376 57.670003,3.3509544 57.398343,4.2190749 l -0.204275,0.652775 0.120983,-0.8520487 0.120982,-0.8520387 h -1.279336 -1.279339 l 0.07541,0.9831307 0.0754,0.9831209 -0.174195,-0.7865027 -0.174194,-0.7865026 -0.298707,0.7865026 c -0.164288,0.432584 -0.30802,0.631283 -0.319404,0.4415612 -0.01139,-0.1897218 0.106836,-0.5832456 0.262711,-0.8745017 0.347626,-0.6495447 0.340244,-0.6570158 -0.873286,-0.8836871 l -0.983127,-0.1836477 0.02054,3.2407276 0.02054,3.2407374 0.745413,-2.0973435 c 0.409978,-1.1535404 0.754658,-1.9719986 0.765958,-1.8188101 0.01129,0.1531883 -0.333382,1.325585 -0.765958,2.6053127 -0.432576,1.2797276 -0.786502,2.3783838 -0.786502,2.4414528 0,0.06302 0.368673,0.04092 0.819274,-0.04915 0.450599,-0.09007 1.134072,-0.16385 1.518826,-0.16385 z"
       id="path1-2"
       transform="translate(10.583333,-2.38125)" /></g></svg>
